<svg width="746" height="731" viewBox="0 0 746 731" fill="none" xmlns="http://www.w3.org/2000/svg">
<path d="M726.5 187V197C715.167 197.333 706.5 198.667 700.5 201C694.833 203 691 207 689 213C687 218.667 686 227.667 686 240V488C686 500 687 509 689 515C691 521 694.833 525 700.5 527C706.5 529 715.167 530.333 726.5 531V541C718.833 540.333 709.167 540 697.5 540C686.167 539.667 674.667 539.5 663 539.5C650 539.5 637.833 539.667 626.5 540C615.167 540 606 540.333 599 541V531C610.333 530.333 618.833 529 624.5 527C630.5 525 634.5 521 636.5 515C638.5 509 639.5 500 639.5 488V213L641.5 214.5L519 543.5H511L385 219V483C385 495 386 504.5 388 511.5C390.333 518.167 394.667 523 401 526C407.667 528.667 417.5 530.333 430.5 531V541C424.5 540.333 416.667 540 407 540C397.333 539.667 388.167 539.5 379.5 539.5C371.167 539.5 362.667 539.667 354 540C345.667 540 338.667 540.333 333 541V531C344.333 530.333 352.833 528.667 358.5 526C364.5 523 368.5 518.167 370.5 511.5C372.5 504.5 373.5 495 373.5 483V240C373.5 227.667 372.5 218.667 370.5 213C368.5 207 364.5 203 358.5 201C352.833 198.667 344.333 197.333 333 197V187C338.667 187.333 345.667 187.667 354 188C362.667 188.333 371.167 188.5 379.5 188.5C386.833 188.5 394.333 188.333 402 188C410 187.667 416.667 187.333 422 187L535.5 486L527 490L639.5 188.5C643.5 188.5 647.333 188.5 651 188.5C655 188.5 659 188.5 663 188.5C674.667 188.5 686.167 188.333 697.5 188C709.167 187.667 718.833 187.333 726.5 187Z" fill="#2F2121"/>
<path d="M23.5 187V197C34.8333 197.333 43.5 198.667 49.5 201C55.1666 203 59 207 61 213C63 218.667 64 227.667 64 240V488C64 500 63 509 61 515C59 521 55.1666 525 49.5 527C43.5 529 34.8333 530.333 23.5 531V541C31.1666 540.333 40.8333 540 52.5 540C63.8333 539.667 75.3333 539.5 87 539.5C100 539.5 112.167 539.667 123.5 540C134.833 540 144 540.333 151 541V531C139.667 530.333 131.167 529 125.5 527C119.5 525 115.5 521 113.5 515C111.5 509 110.5 500 110.5 488V213L108.5 214.5L231 543.5H239L365 219V483C365 495 364 504.5 362 511.5C359.667 518.167 355.333 523 349 526C342.333 528.667 332.5 530.333 319.5 531V541C325.5 540.333 333.333 540 343 540C352.667 539.667 361.833 539.5 370.5 539.5C378.833 539.5 387.333 539.667 396 540C404.333 540 411.333 540.333 417 541V531C405.667 530.333 397.167 528.667 391.5 526C385.5 523 381.5 518.167 379.5 511.5C377.5 504.5 376.5 495 376.5 483V240C376.5 227.667 377.5 218.667 379.5 213C381.5 207 385.5 203 391.5 201C397.167 198.667 405.667 197.333 417 197V187C411.333 187.333 404.333 187.667 396 188C387.333 188.333 378.833 188.5 370.5 188.5C363.167 188.5 355.667 188.333 348 188C340 187.667 333.333 187.333 328 187L214.5 486L223 490L110.5 188.5C106.5 188.5 102.667 188.5 99 188.5C95 188.5 91 188.5 87 188.5C75.3333 188.5 63.8333 188.333 52.5 188C40.8333 187.667 31.1666 187.333 23.5 187Z" fill="#2F2121"/>
</svg>
