<svg width="746" height="667" viewBox="0 0 746 667" fill="none" xmlns="http://www.w3.org/2000/svg">
<path d="M724.5 187V197C713.167 197.333 704.5 198.667 698.5 201C692.833 203 689 207 687 213C685 218.667 684 227.667 684 240V488C684 500 685 509 687 515C689 521 692.833 525 698.5 527C704.5 529 713.167 530.333 724.5 531V541C716.833 540.333 707.167 540 695.5 540C684.167 539.667 672.667 539.5 661 539.5C648 539.5 635.833 539.667 624.5 540C613.167 540 604 540.333 597 541V531C608.333 530.333 616.833 529 622.5 527C628.5 525 632.5 521 634.5 515C636.5 509 637.5 500 637.5 488V213L639.5 214.5L517 543.5H509L383 219V483C383 495 384 504.5 386 511.5C388.333 518.167 392.667 523 399 526C405.667 528.667 415.5 530.333 428.5 531V541C422.5 540.333 414.667 540 405 540C395.333 539.667 386.167 539.5 377.5 539.5C369.167 539.5 360.667 539.667 352 540C343.667 540 336.667 540.333 331 541V531C342.333 530.333 350.833 528.667 356.5 526C362.5 523 366.5 518.167 368.5 511.5C370.5 504.5 371.5 495 371.5 483V240C371.5 227.667 370.5 218.667 368.5 213C366.5 207 362.5 203 356.5 201C350.833 198.667 342.333 197.333 331 197V187C336.667 187.333 343.667 187.667 352 188C360.667 188.333 369.167 188.5 377.5 188.5C384.833 188.5 392.333 188.333 400 188C408 187.667 414.667 187.333 420 187L533.5 486L525 490L637.5 188.5C641.5 188.5 645.333 188.5 649 188.5C653 188.5 657 188.5 661 188.5C672.667 188.5 684.167 188.333 695.5 188C707.167 187.667 716.833 187.333 724.5 187Z" fill="#2F2121"/>
<path d="M21.5 187V197C32.8333 197.333 41.5 198.667 47.5 201C53.1666 203 57 207 59 213C61 218.667 62 227.667 62 240V488C62 500 61 509 59 515C57 521 53.1666 525 47.5 527C41.5 529 32.8333 530.333 21.5 531V541C29.1666 540.333 38.8333 540 50.5 540C61.8333 539.667 73.3333 539.5 85 539.5C98 539.5 110.167 539.667 121.5 540C132.833 540 142 540.333 149 541V531C137.667 530.333 129.167 529 123.5 527C117.5 525 113.5 521 111.5 515C109.5 509 108.5 500 108.5 488V213L106.5 214.5L229 543.5H237L363 219V483C363 495 362 504.5 360 511.5C357.667 518.167 353.333 523 347 526C340.333 528.667 330.5 530.333 317.5 531V541C323.5 540.333 331.333 540 341 540C350.667 539.667 359.833 539.5 368.5 539.5C376.833 539.5 385.333 539.667 394 540C402.333 540 409.333 540.333 415 541V531C403.667 530.333 395.167 528.667 389.5 526C383.5 523 379.5 518.167 377.5 511.5C375.5 504.5 374.5 495 374.5 483V240C374.5 227.667 375.5 218.667 377.5 213C379.5 207 383.5 203 389.5 201C395.167 198.667 403.667 197.333 415 197V187C409.333 187.333 402.333 187.667 394 188C385.333 188.333 376.833 188.5 368.5 188.5C361.167 188.5 353.667 188.333 346 188C338 187.667 331.333 187.333 326 187L212.5 486L221 490L108.5 188.5C104.5 188.5 100.667 188.5 97 188.5C93 188.5 89 188.5 85 188.5C73.3333 188.5 61.8333 188.333 50.5 188C38.8333 187.667 29.1666 187.333 21.5 187Z" fill="#2F2121"/>
</svg>
